# xmcd CD database file
#
# Track frame offsets:
#	150
#	26123
#	54042
#	78406
#	96479
#	109175
#	130769
#	152853
#	181811
#
# Disc length: 2770 seconds
#
# Revision: 0
# Processed by: cddbd v1.5.1PL0 Copyright (c) Steve Scherf et al.
# Submitted via: CDex 1.51
#
DISCID=6c0ad009
DTITLE=Ron McCurdy Quintet - Once Again For The First Time
DYEAR=2001
DGENRE=Jazz
TTITLE0=Once Again For The First Time
TTITLE1=Twin Pines
TTITLE2=Blackbird
TTITLE3=Madeleine's Lullaby
TTITLE4=Barry's Tune
TTITLE5=I Told You So
TTITLE6=Wee Small Hours
TTITLE7=And Your Point Would Be...?
TTITLE8=Our Love Is Here To Stay
EXTD=YEAR: 2001
EXTT0=
EXTT1=
EXTT2=
EXTT3=
EXTT4=
EXTT5=
EXTT6=
EXTT7=
EXTT8=
PLAYORDER=
